<svg version="1" xmlns="http://www.w3.org/2000/svg" width="682.667" height="682.667" viewBox="0 0 512.000000 512.000000"><path d="M221.8 119.5c-.1.2-4.6.6-9.8.9-5.2.4-10.8.9-12.5 1.1-1.6.2-5.2.7-8 1-8.7 1.1-12 1.6-13.5 2-.8.3-3.3.7-5.5 1-2.2.4-4.7.8-5.5 1-.8.2-3.1.7-5 1-12.2 2-46.8 12.4-63.5 19-20.1 8.1-47.9 24-61.5 35.4C10.9 203.6.1 223.3.1 249.2c0 21.5 6.1 39.1 21 60.9C33.6 328.3 48 340 76.5 355c30.8 16.1 78.8 29.5 124 34.5 2.8.4 6.1.8 7.5 1 13.3 2 76 2.8 91.5 1.2 3.9-.4 9-1 11.5-1.2 10.7-1.1 13.6-1.5 16-1.9 1.4-.3 4.5-.8 7-1.1 6.8-.9 28.6-5.4 37-7.7 4.1-1.1 8-2.1 8.5-2.2.6-.2 1.7-.6 2.5-.9.8-.3 7.1-2.3 14-4.5 29-9.3 58.4-25.6 76.9-42.7 20.8-19.2 34.5-42.9 37.9-65.5 1.3-9 .6-23.8-1.6-32.5-7.6-30.3-31-55-70.2-74.5-28.3-14-63.2-25.4-96-31.4-17.6-3.2-25.8-4.2-45.6-5.2-11.4-.6-75.1-1.4-75.6-.9zm74.7 17.9c2.8.4 8.2 1.1 12 1.6 3.9.5 7.9 1.1 9 1.3 1.1.3 5.2 1 9 1.7 38.9 6.9 81.3 26.7 105 49 22.6 21.3 29.9 36.9 29.9 64 0 14.9-1.8 24.5-7 36.1-1.6 3.5-3.2 6.8-3.6 7.4-5.9 7.8-13.2 16.7-15.9 19.5-5.1 5.2-16.3 14-25.9 20.4-10.3 6.9-39.8 21.6-43.3 21.6-.7 0-1.7.3-2.1.7-.3.4-1.2.8-1.9.9-.7.2-4.3 1.5-8.2 2.9-8.3 3.1-21.4 6.5-38.5 9.9-24.2 4.8-37.1 6-64 6-22.8 0-39.4-1.3-54-4.4-2.5-.5-5.7-1.2-7.2-1.4-5.3-.9-23.4-5.8-32.3-8.8-35.5-11.9-67.9-30.1-86-48.3-22.3-22.5-30.4-49.8-23.1-77.8 6.2-23.9 25.6-48.6 52.1-66.4 5.1-3.4 13.9-8.4 15.5-8.8.3-.1 3.7-1.6 7.5-3.4 6.1-2.8 32.9-12.4 38.2-13.6 1-.2 6.1-1.5 11.3-2.9 14.7-3.8 32.2-6 57.5-7.2 7.7-.4 14.1-.8 14.3-.9.6-.6 46.9.3 51.7.9z"/><path d="M199.3 198.8c-3.5.2-6.3.7-6.3 1.2 0 .4-3.1 7.3-6.9 15.2-3.7 7.8-7.5 15.9-8.4 17.8-1.6 3.5-7.4 15.9-18.6 39.3-3.3 7.1-6.1 13-6.1 13.2 0 .2-3.8 8.3-8.5 18s-8.5 17.7-8.5 17.8c0 .2 4.9.3 10.9.3l10.9.1 7.3-15.1c4-8.3 9.5-19.8 12.2-25.6 2.7-5.8 7-14.8 9.4-20 2.5-5.2 6.3-13.2 8.4-17.8 2.1-4.5 4.1-8.2 4.4-8.2.2 0 .2.6 0 1.2-.2.7-.6 2.4-.9 3.8-.2 1.4-1.6 8.1-3 15-1.5 6.9-2.9 13.8-3.2 15.5-.2 1.6-.7 3.7-.9 4.5-.2.8-.7 3-1 4.9-.3 1.9-.8 3.7-1 4.1-.2.4-.7 2.7-1 5.1-.3 2.4-1 6.1-1.6 8.4-.6 2.2-1.3 5.1-1.6 6.5-.8 5-1.1 6.6-2.1 10.7-.5 2.4-.9 4.4-.8 4.4 0 .1 5.2.3 11.5.4l11.3.1 4.1-5.5c2.2-3.1 7.3-10.1 11.3-15.6 18.9-25.8 28.7-39.2 30.4-41.5 1-1.4 4.4-6.1 7.5-10.5 8.9-12.6 8.9-12.6-1 9-1.5 3.3-4 8.7-5.5 12-1.5 3.3-4.9 10.5-7.5 16-9.4 19.9-11.3 24.1-13.9 29.9-1.5 3.2-2.8 6.3-2.9 6.9-.2.9 6.5 1 14.8.2 1.7-.2 3.8-.3 4.7-.4 1.1-.1 2.6-2 3.9-4.9 2.4-5.3 19.6-42.2 25.8-55.5 2.2-4.8 4.1-8.9 4.1-9.1 0-.2 2.6-6 5.9-12.8 6.4-13.4 12-25.3 15.7-33.6l2.4-5.2h-33.7l-7.4 10.2c-4.1 5.7-8.9 12.3-10.6 14.8-23 32.1-39.7 55.1-40.8 56-1.1.9-1.1.2.1-4.9.7-3.3 1.6-7.5 1.9-9.2.3-1.8 1.9-9.8 3.6-17.8 1.6-8 3.2-15.7 3.4-17.1.3-1.4.8-4.1 1.2-6 .3-1.9.7-4 .9-4.5.8-3.2 4.2-21 4-21.2-.4-.5-21.9-.8-28.3-.5zM135.9 221.7c-6.1 12.6-14.7 30.2-19.1 39.3-4.5 9.1-12.1 24.8-17.1 35-4.9 10.2-9.7 20.1-10.8 22.1l-1.8 3.6h12.4l12.3-.1 3.1-6.6c7.6-16.5 10.1-22 12.9-28.5 1.6-3.9 10.9-24.6 20.7-46 9.7-21.5 17.9-39.6 18.2-40.3.4-.9-1.9-1.2-9.6-1.2h-10.2l-11 22.7zM326.8 210.2c-6.4 12.8-18.8 38.6-18.8 39.3 0 .3-2 4.7-4.4 9.8-13.3 28.1-15.8 37.2-13.1 48 1.5 5.9 5.1 9.8 11.9 12.9 4.5 2 6.6 2.3 18.1 2.3 11.3 0 14.1-.4 21.5-2.7 22.2-7.1 39-25.8 53.7-59.8 4.7-10.9 9-22.4 16.1-43 2.7-8 5.3-15.3 5.7-16.3.7-1.6-.2-1.7-10.2-1.7h-10.9l-1.6 4.2c-.9 2.4-5 13.3-9.2 24.3-9 23.6-14.5 35.4-22.9 48.9-7.7 12.3-11.7 16.6-19.2 20.5-8 4.1-15.3 4.7-21.5 1.8-5.1-2.5-5.9-4.6-5.5-12.9.5-8.4 2.8-14 23.9-58.3 4.7-9.9 9.4-20.4 10.5-23.3l2.1-5.2h-20.5l-5.7 11.2z"/></svg>